<svg width="61" height="40" viewBox="0 0 61 40" fill="none" xmlns="http://www.w3.org/2000/svg">
<path d="M43.287 19.0665C43.5381 19.0665 43.7792 19.0665 44.0202 19.0665C43.8019 18.6987 43.4897 18.3932 43.1145 18.1802C42.7393 17.9672 42.3141 17.8541 41.8809 17.852C41.4627 17.8517 41.055 17.7231 40.7147 17.4842C40.3745 17.2452 40.1185 16.9078 39.9826 16.519C39.2588 16.7243 38.5561 16.9954 37.8834 17.3287H38.0743C38.607 17.3287 39.118 17.5368 39.4947 17.9071C39.8714 18.2775 40.083 18.7798 40.083 19.3035C40.088 19.3989 40.088 19.4945 40.083 19.5899C41.109 19.2223 42.1953 19.0449 43.287 19.0665Z" fill="#D22856"/>
<path d="M60.7332 27.6472L55.5406 6.56621C55.179 4.24582 52.9291 0 46.9028 0C46.5033 0 46.1201 0.156044 45.8375 0.433804C45.555 0.711564 45.3962 1.08829 45.3962 1.4811C45.3962 1.87391 45.555 2.25063 45.8375 2.52839C46.1201 2.80615 46.5033 2.9622 46.9028 2.9622C51.7741 2.9622 52.4973 6.6452 52.5676 7.05003L57.3484 26.5018H55.2493C55.0321 24.805 54.4439 23.1744 53.525 21.7222C52.6061 20.2701 51.3783 19.0307 49.926 18.0892C49.4712 18.2774 49.0829 18.5932 48.8096 18.9971C48.5363 19.401 48.3901 19.8751 48.3893 20.3602C48.3948 20.4457 48.3948 20.5314 48.3893 20.6169C49.6107 21.4404 50.6131 22.5401 51.3122 23.8236C52.0113 25.1072 52.3867 26.537 52.4069 27.9928C52.4008 28.4894 52.3538 28.9847 52.2663 29.4739C51.9375 31.5714 50.8559 33.484 49.2173 34.8657C47.5786 36.2474 45.4911 37.007 43.3322 37.007C41.1734 37.007 39.0859 36.2474 37.4472 34.8657C35.8086 33.484 34.727 31.5714 34.3982 29.4739C34.3107 28.9847 34.2636 28.4894 34.2576 27.9928C34.2733 26.6229 34.5993 25.2737 35.2118 24.0432C34.7037 24.0081 34.2282 23.7847 33.8814 23.4181C33.5346 23.0515 33.3424 22.569 33.3436 22.0684C33.3453 21.889 33.277 21.7159 33.1528 21.5846C32.181 23.0752 31.5662 24.7633 31.3549 26.5215H29.4868C29.1663 23.6174 27.7658 20.9319 25.5542 18.9809C23.3427 17.0298 20.4759 15.9507 17.5044 15.9507C14.5329 15.9507 11.6662 17.0298 9.45463 18.9809C7.24307 20.9319 5.84259 23.6174 5.5221 26.5215H3.44302L8.23394 7.05003C8.29421 6.6452 9.0475 2.9622 13.8987 2.9622C14.2983 2.9622 14.6815 2.80615 14.964 2.52839C15.2465 2.25063 15.4053 1.87391 15.4053 1.4811C15.4053 1.08829 15.2465 0.711564 14.964 0.433804C14.6815 0.156044 14.2983 0 13.8987 0C7.87236 0 5.62254 4.24582 5.26096 6.56621L0.0582358 27.6472C-0.00612168 27.8617 -0.0173251 28.0883 0.0255611 28.308C0.0684473 28.5277 0.164178 28.7341 0.304759 28.91C0.44534 29.0859 0.62669 29.2262 0.833664 29.3191C1.04064 29.4121 1.26723 29.455 1.49451 29.4443H5.51206C5.59378 30.055 5.72135 30.659 5.89372 31.2512C5.95717 31.1429 5.99172 31.0206 5.99416 30.8957C5.99416 30.372 6.2058 29.8697 6.58252 29.4993C6.95923 29.129 7.47017 28.9209 8.00293 28.9209C8.16525 28.9248 8.32675 28.9446 8.48504 28.9802C8.44252 28.6526 8.41904 28.323 8.41473 27.9928C8.41742 27.4964 8.46109 27.0011 8.5453 26.5117C8.86708 24.4074 9.94627 22.4864 11.5867 21.0981C13.2271 19.7097 15.3198 18.9461 17.4843 18.9461C19.6489 18.9461 21.7416 19.7097 23.382 21.0981C25.0224 22.4864 26.1016 24.4074 26.4234 26.5117C26.5076 27.0011 26.5513 27.4964 26.554 27.9928C26.5638 29.6507 26.1017 31.2782 25.2199 32.6915C24.3381 34.1047 23.0717 35.2472 21.5639 35.9899C20.0561 36.7326 18.3671 37.0458 16.6877 36.8942C15.0083 36.7425 13.4056 36.132 12.0607 35.1317C11.6982 35.4412 11.235 35.6128 10.755 35.6155C10.5569 35.6181 10.3679 35.6973 10.2288 35.8359C10.0897 35.9745 10.0117 36.1613 10.0117 36.356C10.009 36.6321 9.94739 36.9046 9.83092 37.1558C11.9797 38.9066 14.6835 39.8636 17.4743 39.8613C20.4223 39.8738 23.2728 38.8236 25.4864 36.9095C27.7 34.9953 29.1232 32.35 29.4868 29.4739H31.3147C31.6456 32.3691 33.0499 35.0431 35.2593 36.9848C37.4688 38.9266 40.3285 40 43.2921 40C46.2557 40 49.1154 38.9266 51.3248 36.9848C53.5343 35.0431 54.9385 32.3691 55.2694 29.4739H59.2869C59.5191 29.4904 59.7519 29.4503 59.9647 29.3573C60.1774 29.2642 60.3635 29.121 60.5065 28.9404C60.6495 28.7598 60.7451 28.5473 60.7846 28.3217C60.8241 28.0961 60.8065 27.8645 60.7332 27.6472Z" fill="#D22856"/>
<path d="M50.9203 15.9168C50.3273 15.9181 49.7398 15.8044 49.1915 15.5822C48.6432 15.36 48.1448 15.0336 47.725 14.6218C47.3052 14.21 46.9721 13.7208 46.7448 13.1823C46.5176 12.6437 46.4006 12.0664 46.4006 11.4834C46.3979 12.6601 45.9206 13.7878 45.0733 14.6189C44.2259 15.45 43.0778 15.9168 41.8809 15.9168C43.0788 15.9194 44.2268 16.3884 45.0739 17.2211C45.9209 18.0538 46.3979 19.1825 46.4006 20.3601C46.4006 19.1817 46.8768 18.0515 47.7244 17.2182C48.572 16.385 49.7216 15.9168 50.9203 15.9168Z" fill="#283645"/>
<path d="M38.0743 19.3828C37.3417 19.3828 36.6392 19.0967 36.1212 18.5875C35.6032 18.0783 35.3122 17.3876 35.3122 16.6675C35.3122 17.3859 35.0226 18.0751 34.5068 18.584C33.9909 19.093 33.291 19.3802 32.5602 19.3828C33.2901 19.3828 33.99 19.6679 34.5062 20.1752C35.0223 20.6826 35.3122 21.3708 35.3122 22.0883C35.3149 21.3699 35.607 20.6817 36.1247 20.1746C36.6424 19.6675 37.3435 19.3828 38.0743 19.3828Z" fill="#283645"/>
<path d="M10.785 33.6406C10.056 33.6354 9.35856 33.347 8.84491 32.8384C8.33126 32.3297 8.04302 31.642 8.04303 30.9253C8.04304 31.6437 7.75342 32.3329 7.2376 32.8419C6.72178 33.3508 6.02182 33.638 5.29102 33.6406C6.02182 33.6433 6.72178 33.9305 7.2376 34.4394C7.75342 34.9484 8.04304 35.6375 8.04303 36.356C8.04302 35.6392 8.33126 34.9516 8.84491 34.4429C9.35856 33.9342 10.056 33.6459 10.785 33.6406Z" fill="#283645"/>
</svg>
