<svg width="75" height="34" viewBox="0 0 75 34" fill="none" xmlns="http://www.w3.org/2000/svg">
<path d="M0.193255 12.4251C0.193164 12.0924 0.325526 11.7728 0.56203 11.5348C0.798535 11.2967 1.1204 11.1591 1.45878 11.1514H8.67027C13.7826 11.1514 17.1473 13.8272 17.1473 18.2113V18.2705C17.1473 23.0693 13.0695 25.5575 8.24843 25.5575H2.75444V32.2916C2.77019 32.4663 2.74878 32.6423 2.69159 32.8084C2.63439 32.9745 2.54265 33.1271 2.4222 33.2565C2.30175 33.3859 2.15523 33.4892 1.99196 33.5599C1.82869 33.6306 1.65224 33.6671 1.47384 33.6671C1.29544 33.6671 1.119 33.6306 0.955733 33.5599C0.792463 33.4892 0.645943 33.3859 0.525494 33.2565C0.405045 33.1271 0.313297 32.9745 0.256098 32.8084C0.1989 32.6423 0.177502 32.4663 0.193255 32.2916V12.4251ZM8.34887 23.2865C12.0952 23.2865 14.556 21.3117 14.556 18.3495V18.2903C14.556 15.1108 12.1354 13.4619 8.52966 13.4619H2.80466V23.247L8.34887 23.2865Z" fill="#283645"/>
<path d="M22.0186 12.2671C22.0028 12.0924 22.0242 11.9164 22.0814 11.7502C22.1386 11.5841 22.2304 11.4315 22.3508 11.3021C22.4713 11.1728 22.6178 11.0695 22.781 10.9988C22.9443 10.9281 23.1208 10.8916 23.2992 10.8916C23.4776 10.8916 23.654 10.9281 23.8173 10.9988C23.9806 11.0695 24.1271 11.1728 24.2475 11.3021C24.368 11.4315 24.4597 11.5841 24.5169 11.7502C24.5741 11.9164 24.5955 12.0924 24.5798 12.2671V32.2915C24.5955 32.4662 24.5741 32.6422 24.5169 32.8084C24.4597 32.9745 24.368 33.1271 24.2475 33.2565C24.1271 33.3858 23.9806 33.4891 23.8173 33.5598C23.654 33.6305 23.4776 33.667 23.2992 33.667C23.1208 33.667 22.9443 33.6305 22.781 33.5598C22.6178 33.4891 22.4713 33.3858 22.3508 33.2565C22.2304 33.1271 22.1386 32.9745 22.0814 32.8084C22.0242 32.6422 22.0028 32.4662 22.0186 32.2915V12.2671Z" fill="#283645"/>
<path d="M31.1987 12.2963C31.2065 11.9697 31.3426 11.6587 31.5786 11.4285C31.8145 11.1984 32.1319 11.0671 32.4643 11.0621H32.8158C33.0768 11.0673 33.3322 11.137 33.5586 11.2647C33.785 11.3923 33.9751 11.5739 34.1115 11.7927L47.8615 29.0229V12.2371C47.8615 11.9123 47.9927 11.6009 48.2263 11.3713C48.4598 11.1417 48.7766 11.0127 49.1069 11.0127C49.4373 11.0127 49.754 11.1417 49.9876 11.3713C50.2212 11.6009 50.3524 11.9123 50.3524 12.2371V32.3306C50.3579 32.4834 50.3316 32.6357 50.2753 32.7782C50.2189 32.9207 50.1336 33.0504 50.0246 33.1594C49.9156 33.2685 49.7851 33.3545 49.6412 33.4123C49.4972 33.4702 49.3428 33.4986 49.1873 33.4958H49.0567C48.79 33.4777 48.5313 33.3987 48.3011 33.265C48.0709 33.1313 47.8757 32.9466 47.7309 32.7256L33.6695 15.0907V32.3306C33.6673 32.6489 33.5411 32.9542 33.317 33.1838C33.0928 33.4134 32.7876 33.5497 32.4643 33.5649C32.1357 33.5597 31.8225 33.4271 31.593 33.1959C31.3635 32.9647 31.2362 32.6537 31.2389 32.3306V12.2963H31.1987Z" fill="#283645"/>
<path d="M56.7403 12.2671C56.7245 12.0924 56.7459 11.9164 56.8031 11.7502C56.8603 11.5841 56.952 11.4315 57.0725 11.3021C57.1929 11.1728 57.3395 11.0695 57.5027 10.9988C57.666 10.9281 57.8425 10.8916 58.0209 10.8916C58.1993 10.8916 58.3757 10.9281 58.539 10.9988C58.7022 11.0695 58.8487 11.1728 58.9692 11.3021C59.0896 11.4315 59.1814 11.5841 59.2386 11.7502C59.2958 11.9164 59.3172 12.0924 59.3014 12.2671V24.4417L72.1978 11.4377C72.4623 11.1686 72.8218 11.0095 73.2021 10.9933C73.5309 11.0059 73.8422 11.1419 74.072 11.3734C74.3018 11.6048 74.4326 11.9141 74.4375 12.2375C74.4304 12.4056 74.3895 12.5708 74.3171 12.7233C74.2447 12.8758 74.1423 13.0127 74.0157 13.1261L65.9806 20.9463L74.6485 31.3733C74.875 31.6312 74.9998 31.9606 75 32.3014C74.9961 32.4721 74.9579 32.6404 74.8875 32.7965C74.8171 32.9527 74.7159 33.0935 74.5899 33.2111C74.4638 33.3286 74.3153 33.4203 74.153 33.4811C73.9907 33.5419 73.8177 33.5705 73.6441 33.5653C73.4414 33.5598 73.2432 33.5045 73.0678 33.4045C72.8924 33.3044 72.7452 33.1629 72.6397 32.9926L64.1928 22.6348L59.3014 27.4335V32.2718C59.3014 32.4365 59.2684 32.5995 59.2043 32.7517C59.1402 32.9038 59.0463 33.0421 58.9278 33.1585C58.8094 33.2749 58.6688 33.3673 58.514 33.4303C58.3592 33.4933 58.1934 33.5258 58.0259 33.5258C57.8584 33.5258 57.6925 33.4933 57.5377 33.4303C57.383 33.3673 57.2423 33.2749 57.1239 33.1585C57.0055 33.0421 56.9115 32.9038 56.8474 32.7517C56.7833 32.5995 56.7503 32.4365 56.7503 32.2718V12.2671H56.7403Z" fill="#283645"/>
<path d="M26.9401 3.74577C25.9749 3.74578 25.0491 3.36951 24.3656 2.69946C23.6822 2.02942 23.2969 1.12028 23.2942 0.171387C23.2942 1.11937 22.9111 2.02853 22.2293 2.69886C21.5474 3.36919 20.6226 3.74577 19.6583 3.74577C20.6235 3.74839 21.5483 4.12717 22.2299 4.79906C22.9115 5.47096 23.2942 6.38114 23.2942 7.33003C23.2969 6.38023 23.6818 5.47007 24.365 4.79846C25.0482 4.12684 25.974 3.74838 26.9401 3.74577Z" fill="#D22856"/>
</svg>
